<svg width="252" height="39" viewBox="0 0 252 39" fill="none" xmlns="http://www.w3.org/2000/svg">
<path d="M16.3574 32.0983H21.4828L26.6082 9.90164H21.4828L16.3574 32.0983Z" fill="#DC2626"/>
<path d="M11.0113 10L0 21.0114L0.00204998 21.0134L0 21.0155L11.0113 32.0268L14.351 28.6871L6.67734 21.0134L14.351 13.3397L11.0113 10Z" fill="#DC2626"/>
<path d="M42.4995 20.998L31.4881 9.98668L28.1484 13.3264L35.8221 21.0001L28.1484 28.6738L31.4881 32.0135L42.4995 21.0021L42.4974 21.0001L42.4995 20.998Z" fill="#DC2626"/>
<path d="M73.536 30.464C73.5573 30.5493 73.5893 30.656 73.632 30.784C73.696 30.912 73.7387 31.0507 73.76 31.2C73.8027 31.328 73.8133 31.456 73.792 31.584C73.7707 31.712 73.696 31.808 73.568 31.872C73.3973 31.9787 73.1093 32.0213 72.704 32C72.32 31.9787 72 31.968 71.744 31.968H70.24C70.0693 31.968 69.9093 31.9787 69.76 32C69.632 32 69.504 31.9787 69.376 31.936C69.1413 31.872 68.9707 31.744 68.864 31.552C68.7573 31.3813 68.672 31.2 68.608 31.008C68.5653 30.816 68.5013 30.624 68.416 30.432C68.3093 30.0907 68.192 29.7493 68.064 29.408C67.9573 29.0667 67.84 28.736 67.712 28.416C67.648 28.224 67.584 28.0533 67.52 27.904C67.4773 27.7333 67.424 27.584 67.36 27.456C67.296 27.328 67.2 27.2213 67.072 27.136C66.944 27.0293 66.7733 26.9547 66.56 26.912C66.4533 26.912 66.3467 26.912 66.24 26.912C66.1547 26.8907 66.0587 26.88 65.952 26.88H60.896C60.5333 26.88 60.1387 26.88 59.712 26.88C59.3067 26.8587 58.9867 26.9333 58.752 27.104C58.5813 27.232 58.464 27.4027 58.4 27.616C58.336 27.8293 58.2613 28.0427 58.176 28.256C58.0053 28.6187 57.856 29.0027 57.728 29.408C57.6213 29.792 57.4933 30.176 57.344 30.56C57.2587 30.7733 57.1733 30.9973 57.088 31.232C57.024 31.4667 56.9067 31.648 56.736 31.776C56.6293 31.8613 56.4693 31.9253 56.256 31.968C56.064 31.9893 55.84 32 55.584 32C55.3493 32 55.104 32 54.848 32C54.592 31.9787 54.368 31.968 54.176 31.968C53.8987 31.968 53.5573 31.9787 53.152 32C52.768 32 52.4907 31.9467 52.32 31.84C52.2133 31.776 52.1493 31.68 52.128 31.552C52.128 31.424 52.1387 31.296 52.16 31.168C52.2027 31.0187 52.2453 30.88 52.288 30.752C52.3307 30.624 52.3733 30.5173 52.416 30.432C52.6293 29.9413 52.8213 29.44 52.992 28.928C53.184 28.416 53.376 27.9147 53.568 27.424C53.6533 27.2533 53.7173 27.0827 53.76 26.912C53.8027 26.7413 53.8667 26.5707 53.952 26.4C54.1227 25.952 54.2933 25.4933 54.464 25.024C54.6347 24.5547 54.8053 24.096 54.976 23.648C55.1467 23.2213 55.3067 22.8053 55.456 22.4C55.6053 21.9733 55.7653 21.5467 55.936 21.12C56.4267 19.9467 56.8747 18.7627 57.28 17.568C57.7067 16.3733 58.1653 15.1893 58.656 14.016C58.6987 13.9093 58.7307 13.8133 58.752 13.728C58.7733 13.6427 58.8053 13.5467 58.848 13.44C59.0187 12.992 59.1893 12.5333 59.36 12.064C59.5307 11.5947 59.712 11.136 59.904 10.688C60.0107 10.4533 60.096 10.2187 60.16 9.984C60.2453 9.728 60.384 9.52533 60.576 9.376C60.6827 9.312 60.8213 9.25867 60.992 9.216C61.0347 9.19467 61.0773 9.19467 61.12 9.216C61.1627 9.216 61.2053 9.20533 61.248 9.184H64.064C64.2987 9.184 64.5333 9.184 64.768 9.184C65.024 9.16267 65.2267 9.20533 65.376 9.312C65.6107 9.44 65.76 9.632 65.824 9.888C65.9093 10.1227 66.0053 10.368 66.112 10.624C66.2613 10.9867 66.4 11.3493 66.528 11.712C66.656 12.0533 66.7947 12.4053 66.944 12.768C66.9867 12.896 67.0293 13.024 67.072 13.152C67.1147 13.28 67.1573 13.408 67.2 13.536C67.3707 13.9627 67.5307 14.3893 67.68 14.816C67.8293 15.2213 67.9893 15.6373 68.16 16.064C68.5867 17.1307 68.9813 18.208 69.344 19.296C69.728 20.384 70.144 21.4613 70.592 22.528C70.6347 22.6133 70.656 22.6987 70.656 22.784C70.6773 22.848 70.7093 22.9227 70.752 23.008C70.88 23.3493 71.008 23.6907 71.136 24.032C71.264 24.3733 71.392 24.7147 71.52 25.056C71.6053 25.2267 71.6693 25.3973 71.712 25.568C71.7547 25.7173 71.808 25.8773 71.872 26.048C72.1493 26.7307 72.4053 27.4133 72.64 28.096C72.8747 28.7787 73.1307 29.4507 73.408 30.112C73.4507 30.176 73.472 30.24 73.472 30.304C73.472 30.3467 73.4933 30.4 73.536 30.464ZM65.248 23.136C65.5253 23.0293 65.6533 22.848 65.632 22.592C65.6107 22.336 65.5467 22.0907 65.44 21.856C65.3973 21.7707 65.376 21.696 65.376 21.632C65.376 21.5467 65.3547 21.4613 65.312 21.376C65.0347 20.6507 64.7787 19.9147 64.544 19.168C64.3093 18.4213 64.0427 17.6747 63.744 16.928C63.7013 16.8213 63.6587 16.6933 63.616 16.544C63.5733 16.3733 63.52 16.224 63.456 16.096C63.392 15.9467 63.3173 15.8187 63.232 15.712C63.1467 15.6053 63.04 15.552 62.912 15.552C62.8693 15.5947 62.8267 15.6267 62.784 15.648C62.7413 15.6693 62.6987 15.7013 62.656 15.744C62.4853 15.9573 62.3573 16.2133 62.272 16.512C62.208 16.8107 62.1227 17.0987 62.016 17.376C61.76 17.9733 61.5253 18.5813 61.312 19.2C61.12 19.8187 60.9067 20.4373 60.672 21.056C60.5867 21.2693 60.512 21.4827 60.448 21.696C60.384 21.888 60.32 22.1013 60.256 22.336C60.192 22.5067 60.2027 22.6987 60.288 22.912C60.3947 23.0613 60.5653 23.1467 60.8 23.168C61.056 23.1893 61.312 23.2 61.568 23.2H64C64.192 23.2 64.4053 23.2 64.64 23.2C64.8747 23.2 65.0773 23.1787 65.248 23.136ZM85.0103 15.072C86.2903 15.0293 87.3569 15.2107 88.2103 15.616C89.0636 16.0213 89.7356 16.6187 90.2263 17.408C90.3756 17.6427 90.4929 17.8987 90.5783 18.176C90.6636 18.432 90.7489 18.6987 90.8343 18.976C90.8769 19.1467 90.8983 19.3067 90.8983 19.456C90.9196 19.6053 90.9516 19.7547 90.9943 19.904C90.9943 20.032 91.0049 20.1173 91.0263 20.16C91.0689 20.4587 91.0903 20.768 91.0903 21.088C91.0903 21.408 91.0903 21.7173 91.0903 22.016V24.864V30.048C91.0903 30.4533 91.0796 30.848 91.0583 31.232C91.0583 31.5947 90.9089 31.8293 90.6103 31.936C90.4823 31.9787 90.3329 32 90.1623 32C89.9916 32 89.8209 32 89.6503 32H87.9223C87.6663 32 87.4316 31.9893 87.2183 31.968C87.0263 31.9253 86.8769 31.8293 86.7703 31.68C86.6849 31.552 86.6316 31.392 86.6103 31.2C86.6103 30.9867 86.6103 30.7627 86.6103 30.528V28.288V23.52C86.6103 22.7307 86.5783 22.0053 86.5143 21.344C86.4503 20.6613 86.2583 20.0853 85.9383 19.616C85.6396 19.1893 85.2023 18.8907 84.6263 18.72C84.5196 18.6773 84.4023 18.656 84.2743 18.656C84.1676 18.656 84.0503 18.6347 83.9223 18.592C83.8156 18.5707 83.6769 18.5707 83.5063 18.592C83.3569 18.592 83.2396 18.6027 83.1543 18.624C83.0689 18.6453 82.9943 18.656 82.9303 18.656C82.8663 18.656 82.8023 18.6667 82.7383 18.688C82.2476 18.816 81.8529 18.9867 81.5543 19.2C80.8716 19.6907 80.4663 20.4053 80.3383 21.344C80.2103 22.2827 80.1463 23.3387 80.1463 24.512V28.512V30.464C80.1463 30.656 80.1463 30.848 80.1463 31.04C80.1463 31.232 80.1143 31.392 80.0503 31.52C79.9436 31.7547 79.7729 31.8933 79.5383 31.936C79.3036 31.9787 79.0156 32 78.6743 32H77.0743C76.8396 32 76.6049 31.9893 76.3703 31.968C76.1356 31.9467 75.9649 31.872 75.8583 31.744C75.7089 31.552 75.6343 31.2747 75.6343 30.912C75.6556 30.5493 75.6663 30.208 75.6663 29.888V25.536V18.496V16.864C75.6663 16.6293 75.6663 16.416 75.6663 16.224C75.6876 16.032 75.7516 15.872 75.8583 15.744C75.9009 15.68 75.9649 15.6373 76.0503 15.616C76.1569 15.5733 76.2636 15.5413 76.3703 15.52H76.5303C76.6369 15.4987 76.7436 15.488 76.8503 15.488C76.9783 15.488 77.0956 15.488 77.2023 15.488H78.5463C78.7169 15.488 78.8769 15.4987 79.0263 15.52C79.1969 15.52 79.3463 15.5413 79.4743 15.584C79.6236 15.648 79.7196 15.744 79.7623 15.872C79.8263 16 79.8796 16.1493 79.9223 16.32C79.9436 16.4053 79.9436 16.48 79.9223 16.544C79.9223 16.608 79.9436 16.672 79.9863 16.736C80.0289 16.8427 80.0609 16.9067 80.0823 16.928C80.1249 16.9493 80.1783 16.9813 80.2423 17.024C80.4769 17.0453 80.6689 16.9707 80.8183 16.8C80.9676 16.608 81.1276 16.4587 81.2983 16.352C81.8743 15.9253 82.5143 15.584 83.2183 15.328C83.4103 15.264 83.6023 15.2213 83.7943 15.2C84.0076 15.1787 84.2316 15.1467 84.4663 15.104C84.5303 15.0827 84.6263 15.0827 84.7543 15.104C84.8823 15.104 84.9676 15.0933 85.0103 15.072ZM96.779 10.56H98.923C99.243 10.56 99.5203 10.5813 99.755 10.624C100.011 10.6453 100.192 10.7733 100.299 11.008C100.342 11.1147 100.363 11.2427 100.363 11.392C100.363 11.5413 100.363 11.6907 100.363 11.84V13.28C100.363 13.3867 100.352 13.5147 100.331 13.664C100.331 13.792 100.342 13.9093 100.363 14.016V14.368C100.363 14.5387 100.374 14.6987 100.395 14.848C100.416 14.976 100.47 15.0933 100.555 15.2C100.704 15.392 100.971 15.4987 101.355 15.52C101.76 15.52 102.144 15.52 102.507 15.52C102.635 15.52 102.763 15.52 102.891 15.52C103.019 15.52 103.136 15.5413 103.243 15.584C103.478 15.6907 103.606 15.8827 103.627 16.16C103.67 16.4373 103.691 16.7467 103.691 17.088C103.691 17.2373 103.691 17.3867 103.691 17.536C103.712 17.6853 103.702 17.8133 103.659 17.92C103.552 18.2613 103.328 18.4427 102.987 18.464C102.646 18.4853 102.262 18.496 101.835 18.496C101.75 18.496 101.654 18.496 101.547 18.496C101.462 18.4747 101.387 18.4747 101.323 18.496C101.238 18.5173 101.163 18.528 101.099 18.528C101.035 18.5067 100.971 18.5173 100.907 18.56C100.736 18.6027 100.608 18.6987 100.523 18.848C100.459 18.976 100.406 19.136 100.363 19.328C100.342 19.4347 100.342 19.552 100.363 19.68C100.384 19.808 100.384 19.9253 100.363 20.032V22.016V25.76C100.363 26.2933 100.374 26.7627 100.395 27.168C100.438 27.552 100.576 27.8933 100.811 28.192C100.918 28.32 101.056 28.416 101.227 28.48C101.419 28.5227 101.611 28.5653 101.803 28.608C101.867 28.6293 101.931 28.64 101.995 28.64C102.08 28.6187 102.144 28.6187 102.187 28.64H102.539C102.774 28.64 102.976 28.6507 103.147 28.672C103.318 28.6933 103.456 28.7787 103.563 28.928C103.648 29.056 103.691 29.2267 103.691 29.44C103.691 29.632 103.691 29.8347 103.691 30.048C103.691 30.496 103.68 30.912 103.659 31.296C103.659 31.6587 103.488 31.904 103.147 32.032C103.04 32.0747 102.944 32.0853 102.859 32.064C102.774 32.064 102.678 32.0853 102.571 32.128H102.251C102.208 32.128 102.144 32.1173 102.059 32.096C101.974 32.096 101.899 32.1067 101.835 32.128C101.728 32.1493 101.611 32.1493 101.483 32.128C101.376 32.128 101.27 32.128 101.163 32.128C101.056 32.128 100.95 32.128 100.843 32.128C100.736 32.1493 100.64 32.1493 100.555 32.128H100.203C100.096 32.1067 99.979 32.096 99.851 32.096C99.723 32.096 99.6057 32.0853 99.499 32.064C99.3497 32.0427 99.211 32.0213 99.083 32C98.955 31.9787 98.827 31.9573 98.699 31.936C98.4643 31.872 98.2403 31.7973 98.027 31.712C97.8137 31.6267 97.611 31.5307 97.419 31.424C97.355 31.3813 97.291 31.3387 97.227 31.296C97.163 31.232 97.0883 31.168 97.003 31.104C96.9603 31.0613 96.907 31.0187 96.843 30.976C96.779 30.912 96.7257 30.8587 96.683 30.816C96.3843 30.4107 96.1603 29.9627 96.011 29.472C95.9683 29.3867 95.947 29.312 95.947 29.248C95.9683 29.1627 95.9683 29.0667 95.947 28.96C95.9257 28.9173 95.915 28.864 95.915 28.8C95.915 28.736 95.9043 28.6827 95.883 28.64V28.32C95.8617 28.2347 95.851 28.1387 95.851 28.032C95.8723 27.9253 95.883 27.8187 95.883 27.712V26.496V21.728V20.032C95.883 19.8827 95.883 19.7333 95.883 19.584C95.9043 19.4347 95.8937 19.296 95.851 19.168C95.7657 18.8693 95.6163 18.6773 95.403 18.592C95.1683 18.4853 94.8697 18.4533 94.507 18.496C94.1443 18.5387 93.835 18.5067 93.579 18.4C93.4083 18.336 93.3017 18.24 93.259 18.112C93.2163 17.984 93.1737 17.824 93.131 17.632V16.96C93.131 16.576 93.1523 16.2667 93.195 16.032C93.2377 15.7973 93.419 15.6373 93.739 15.552C93.8243 15.5093 93.9097 15.4987 93.995 15.52C94.0803 15.52 94.1763 15.52 94.283 15.52C94.603 15.52 94.9017 15.5093 95.179 15.488C95.4563 15.4453 95.6483 15.3173 95.755 15.104C95.819 14.9547 95.851 14.784 95.851 14.592C95.8723 14.4 95.883 14.208 95.883 14.016V12.032C95.883 11.8613 95.883 11.68 95.883 11.488C95.883 11.296 95.9043 11.136 95.947 11.008C96.0537 10.7947 96.2137 10.656 96.427 10.592C96.4697 10.5707 96.523 10.5707 96.587 10.592C96.6723 10.592 96.7363 10.5813 96.779 10.56ZM122.365 23.072C122.408 23.2 122.429 23.3813 122.429 23.616C122.429 23.8507 122.408 24.032 122.365 24.16V24.48C122.322 24.6507 122.301 24.8213 122.301 24.992C122.322 25.1627 122.312 25.3333 122.269 25.504C122.226 25.6533 122.194 25.792 122.173 25.92C122.152 26.048 122.13 26.1867 122.109 26.336C122.024 26.5707 121.949 26.816 121.885 27.072C121.821 27.3067 121.736 27.5307 121.629 27.744C121.181 28.768 120.594 29.6 119.869 30.24C119.144 30.88 118.269 31.4133 117.245 31.84C116.989 31.9467 116.722 32.0213 116.445 32.064C116.189 32.128 115.922 32.192 115.645 32.256C115.538 32.2987 115.421 32.32 115.293 32.32C115.165 32.32 115.048 32.3307 114.941 32.352C114.877 32.352 114.802 32.352 114.717 32.352C114.653 32.3733 114.589 32.384 114.525 32.384C114.418 32.4053 114.248 32.416 114.013 32.416C113.778 32.4373 113.597 32.4267 113.469 32.384H113.149C113.042 32.3627 112.925 32.352 112.797 32.352C112.69 32.3733 112.584 32.3627 112.477 32.32C112.392 32.2987 112.306 32.288 112.221 32.288C112.157 32.288 112.072 32.2773 111.965 32.256C111.752 32.192 111.538 32.1387 111.325 32.096C111.112 32.0533 110.909 31.9893 110.717 31.904C110.461 31.8187 110.216 31.7333 109.981 31.648C109.768 31.5627 109.544 31.456 109.309 31.328C108.562 30.88 107.922 30.3573 107.389 29.76C106.856 29.1627 106.408 28.448 106.045 27.616C105.938 27.424 105.853 27.2213 105.789 27.008C105.746 26.7947 105.693 26.5707 105.629 26.336C105.586 26.2293 105.565 26.1333 105.565 26.048C105.565 25.9627 105.544 25.8667 105.501 25.76C105.458 25.5893 105.437 25.4187 105.437 25.248C105.437 25.056 105.416 24.8747 105.373 24.704C105.352 24.5973 105.341 24.5013 105.341 24.416C105.341 24.3307 105.341 24.2347 105.341 24.128C105.298 24 105.277 23.8187 105.277 23.584C105.298 23.3493 105.33 23.168 105.373 23.04V22.816C105.394 22.7093 105.394 22.6027 105.373 22.496C105.373 22.368 105.394 22.2507 105.437 22.144C105.458 22.0373 105.469 21.9413 105.469 21.856C105.469 21.7493 105.49 21.6427 105.533 21.536C105.618 21.2587 105.693 20.992 105.757 20.736C105.821 20.4587 105.906 20.192 106.013 19.936C106.397 19.0613 106.856 18.336 107.389 17.76C107.922 17.1627 108.573 16.6187 109.341 16.128C109.554 16.0213 109.778 15.9253 110.013 15.84C110.248 15.7547 110.482 15.6587 110.717 15.552C110.994 15.4453 111.282 15.3707 111.581 15.328C111.88 15.2853 112.189 15.2213 112.509 15.136C112.68 15.1147 112.84 15.104 112.989 15.104C113.138 15.104 113.288 15.0933 113.437 15.072C114.674 15.0507 115.741 15.1787 116.637 15.456C117.554 15.7333 118.365 16.1173 119.069 16.608C119.304 16.7787 119.538 16.9707 119.773 17.184C120.029 17.376 120.242 17.5893 120.413 17.824C120.584 18.0373 120.733 18.2507 120.861 18.464C121.01 18.6773 121.16 18.9013 121.309 19.136C121.458 19.3707 121.576 19.6267 121.661 19.904C121.746 20.16 121.842 20.4373 121.949 20.736C122.013 20.9067 122.066 21.088 122.109 21.28C122.152 21.472 122.194 21.664 122.237 21.856C122.258 21.9413 122.269 22.0267 122.269 22.112C122.269 22.1973 122.28 22.2827 122.301 22.368C122.344 22.4747 122.354 22.592 122.333 22.72C122.312 22.848 122.322 22.9653 122.365 23.072ZM117.885 24.224C117.906 24.1173 117.917 23.968 117.917 23.776C117.917 23.5627 117.906 23.4027 117.885 23.296V23.04C117.842 22.9333 117.821 22.816 117.821 22.688C117.821 22.56 117.81 22.4427 117.789 22.336C117.789 22.2507 117.778 22.1867 117.757 22.144C117.714 21.9733 117.672 21.8027 117.629 21.632C117.608 21.44 117.565 21.2587 117.501 21.088C117.266 20.5333 116.989 20.064 116.669 19.68C116.349 19.2747 115.922 18.9547 115.389 18.72C115.261 18.6773 115.133 18.6453 115.005 18.624C114.877 18.5813 114.738 18.5387 114.589 18.496C114.418 18.4533 114.237 18.4427 114.045 18.464C113.853 18.464 113.661 18.464 113.469 18.464C113.405 18.5067 113.33 18.528 113.245 18.528C113.16 18.5067 113.085 18.5067 113.021 18.528C112.872 18.5707 112.722 18.6133 112.573 18.656C112.445 18.6773 112.328 18.72 112.221 18.784C111.688 19.0187 111.25 19.36 110.909 19.808C110.589 20.2347 110.333 20.736 110.141 21.312C110.077 21.5253 110.024 21.7493 109.981 21.984C109.96 22.2187 109.928 22.4533 109.885 22.688C109.864 22.7947 109.853 22.9013 109.853 23.008C109.853 23.1147 109.853 23.2213 109.853 23.328C109.81 23.4773 109.789 23.7013 109.789 24C109.81 24.2987 109.842 24.5227 109.885 24.672V24.96C109.928 25.1307 109.96 25.3013 109.981 25.472C110.002 25.6213 110.034 25.7813 110.077 25.952C110.29 26.592 110.514 27.1147 110.749 27.52C111.005 27.904 111.4 28.256 111.933 28.576C112.082 28.6827 112.242 28.768 112.413 28.832C112.605 28.896 112.797 28.9493 112.989 28.992C113.074 29.0133 113.149 29.024 113.213 29.024C113.277 29.0027 113.352 29.0027 113.437 29.024C113.522 29.0453 113.608 29.0667 113.693 29.088C113.8 29.088 113.896 29.0773 113.981 29.056H114.237C114.408 29.0133 114.578 28.9813 114.749 28.96C114.92 28.9387 115.08 28.896 115.229 28.832C115.784 28.6187 116.232 28.3307 116.573 27.968C116.914 27.6053 117.202 27.1573 117.437 26.624C117.522 26.4107 117.586 26.1973 117.629 25.984C117.672 25.7707 117.725 25.5467 117.789 25.312C117.81 25.2267 117.821 25.152 117.821 25.088C117.821 25.0027 117.832 24.9173 117.853 24.832C117.853 24.7253 117.853 24.6293 117.853 24.544C117.853 24.4373 117.864 24.3307 117.885 24.224ZM134.792 15.072C136.072 15.0293 137.138 15.2107 137.992 15.616C138.845 16.0213 139.517 16.6187 140.008 17.408C140.157 17.6427 140.274 17.8987 140.36 18.176C140.445 18.432 140.53 18.6987 140.616 18.976C140.658 19.1467 140.68 19.3067 140.68 19.456C140.701 19.6053 140.733 19.7547 140.776 19.904C140.776 20.032 140.786 20.1173 140.808 20.16C140.85 20.4587 140.872 20.768 140.872 21.088C140.872 21.408 140.872 21.7173 140.872 22.016V24.864V30.048C140.872 30.4533 140.861 30.848 140.84 31.232C140.84 31.5947 140.69 31.8293 140.392 31.936C140.264 31.9787 140.114 32 139.944 32C139.773 32 139.602 32 139.432 32H137.704C137.448 32 137.213 31.9893 137 31.968C136.808 31.9253 136.658 31.8293 136.552 31.68C136.466 31.552 136.413 31.392 136.392 31.2C136.392 30.9867 136.392 30.7627 136.392 30.528V28.288V23.52C136.392 22.7307 136.36 22.0053 136.296 21.344C136.232 20.6613 136.04 20.0853 135.72 19.616C135.421 19.1893 134.984 18.8907 134.408 18.72C134.301 18.6773 134.184 18.656 134.056 18.656C133.949 18.656 133.832 18.6347 133.704 18.592C133.597 18.5707 133.458 18.5707 133.288 18.592C133.138 18.592 133.021 18.6027 132.936 18.624C132.85 18.6453 132.776 18.656 132.712 18.656C132.648 18.656 132.584 18.6667 132.52 18.688C132.029 18.816 131.634 18.9867 131.336 19.2C130.653 19.6907 130.248 20.4053 130.12 21.344C129.992 22.2827 129.928 23.3387 129.928 24.512V28.512V30.464C129.928 30.656 129.928 30.848 129.928 31.04C129.928 31.232 129.896 31.392 129.832 31.52C129.725 31.7547 129.554 31.8933 129.32 31.936C129.085 31.9787 128.797 32 128.456 32H126.856C126.621 32 126.386 31.9893 126.152 31.968C125.917 31.9467 125.746 31.872 125.64 31.744C125.49 31.552 125.416 31.2747 125.416 30.912C125.437 30.5493 125.448 30.208 125.448 29.888V25.536V18.496V16.864C125.448 16.6293 125.448 16.416 125.448 16.224C125.469 16.032 125.533 15.872 125.64 15.744C125.682 15.68 125.746 15.6373 125.832 15.616C125.938 15.5733 126.045 15.5413 126.152 15.52H126.312C126.418 15.4987 126.525 15.488 126.632 15.488C126.76 15.488 126.877 15.488 126.984 15.488H128.328C128.498 15.488 128.658 15.4987 128.808 15.52C128.978 15.52 129.128 15.5413 129.256 15.584C129.405 15.648 129.501 15.744 129.544 15.872C129.608 16 129.661 16.1493 129.704 16.32C129.725 16.4053 129.725 16.48 129.704 16.544C129.704 16.608 129.725 16.672 129.768 16.736C129.81 16.8427 129.842 16.9067 129.864 16.928C129.906 16.9493 129.96 16.9813 130.024 17.024C130.258 17.0453 130.45 16.9707 130.6 16.8C130.749 16.608 130.909 16.4587 131.08 16.352C131.656 15.9253 132.296 15.584 133 15.328C133.192 15.264 133.384 15.2213 133.576 15.2C133.789 15.1787 134.013 15.1467 134.248 15.104C134.312 15.0827 134.408 15.0827 134.536 15.104C134.664 15.104 134.749 15.0933 134.792 15.072ZM148.8 9.408C148.95 9.57867 149.024 9.83467 149.024 10.176C149.024 10.5173 149.024 10.848 149.024 11.168C149.024 11.4453 149.024 11.7333 149.024 12.032C149.024 12.3307 148.95 12.5333 148.8 12.64C148.672 12.7467 148.502 12.8107 148.288 12.832C148.096 12.8533 147.883 12.864 147.648 12.864H145.856C145.622 12.864 145.408 12.8533 145.216 12.832C145.046 12.8107 144.896 12.7467 144.768 12.64C144.683 12.576 144.619 12.4587 144.576 12.288C144.555 12.096 144.534 11.8933 144.512 11.68C144.512 11.4453 144.512 11.2107 144.512 10.976C144.534 10.7413 144.544 10.5387 144.544 10.368C144.544 10.1973 144.544 10.048 144.544 9.92C144.566 9.77067 144.608 9.64267 144.672 9.536C144.715 9.45067 144.768 9.38667 144.832 9.344C144.918 9.30133 145.003 9.25867 145.088 9.216C145.131 9.216 145.184 9.216 145.248 9.216C145.312 9.19467 145.366 9.184 145.408 9.184H147.744C147.958 9.184 148.16 9.19467 148.352 9.216C148.544 9.23733 148.694 9.30133 148.8 9.408ZM149.024 30.24C149.024 30.6667 149.014 31.0293 148.992 31.328C148.971 31.6267 148.779 31.8293 148.416 31.936C148.288 31.9787 148.15 32 148 32C147.851 31.9787 147.691 31.968 147.52 31.968H145.728C145.536 31.968 145.344 31.9573 145.152 31.936C144.982 31.9147 144.854 31.8507 144.768 31.744C144.64 31.5947 144.566 31.4133 144.544 31.2C144.544 30.9653 144.544 30.72 144.544 30.464V16.96C144.544 16.7467 144.544 16.5333 144.544 16.32C144.544 16.1067 144.587 15.936 144.672 15.808C144.8 15.6587 144.982 15.5627 145.216 15.52C145.259 15.4987 145.312 15.4987 145.376 15.52C145.462 15.52 145.526 15.5093 145.568 15.488H147.168C147.296 15.488 147.435 15.488 147.584 15.488C147.755 15.4667 147.894 15.4667 148 15.488H148.256C148.384 15.5307 148.502 15.5627 148.608 15.584C148.715 15.6053 148.8 15.6693 148.864 15.776C148.95 15.8827 148.992 16.032 148.992 16.224C149.014 16.416 149.024 16.6187 149.024 16.832V30.24ZM169.146 23.072C169.189 23.2 169.21 23.3813 169.21 23.616C169.21 23.8507 169.189 24.032 169.146 24.16V24.48C169.104 24.6507 169.082 24.8213 169.082 24.992C169.104 25.1627 169.093 25.3333 169.05 25.504C169.008 25.6533 168.976 25.792 168.954 25.92C168.933 26.048 168.912 26.1867 168.89 26.336C168.805 26.5707 168.73 26.816 168.666 27.072C168.602 27.3067 168.517 27.5307 168.41 27.744C167.962 28.768 167.376 29.6 166.65 30.24C165.925 30.88 165.05 31.4133 164.026 31.84C163.77 31.9467 163.504 32.0213 163.226 32.064C162.97 32.128 162.704 32.192 162.426 32.256C162.32 32.2987 162.202 32.32 162.074 32.32C161.946 32.32 161.829 32.3307 161.722 32.352C161.658 32.352 161.584 32.352 161.498 32.352C161.434 32.3733 161.37 32.384 161.306 32.384C161.2 32.4053 161.029 32.416 160.794 32.416C160.56 32.4373 160.378 32.4267 160.25 32.384H159.93C159.824 32.3627 159.706 32.352 159.578 32.352C159.472 32.3733 159.365 32.3627 159.258 32.32C159.173 32.2987 159.088 32.288 159.002 32.288C158.938 32.288 158.853 32.2773 158.746 32.256C158.533 32.192 158.32 32.1387 158.106 32.096C157.893 32.0533 157.69 31.9893 157.498 31.904C157.242 31.8187 156.997 31.7333 156.762 31.648C156.549 31.5627 156.325 31.456 156.09 31.328C155.344 30.88 154.704 30.3573 154.17 29.76C153.637 29.1627 153.189 28.448 152.826 27.616C152.72 27.424 152.634 27.2213 152.57 27.008C152.528 26.7947 152.474 26.5707 152.41 26.336C152.368 26.2293 152.346 26.1333 152.346 26.048C152.346 25.9627 152.325 25.8667 152.282 25.76C152.24 25.5893 152.218 25.4187 152.218 25.248C152.218 25.056 152.197 24.8747 152.154 24.704C152.133 24.5973 152.122 24.5013 152.122 24.416C152.122 24.3307 152.122 24.2347 152.122 24.128C152.08 24 152.058 23.8187 152.058 23.584C152.08 23.3493 152.112 23.168 152.154 23.04V22.816C152.176 22.7093 152.176 22.6027 152.154 22.496C152.154 22.368 152.176 22.2507 152.218 22.144C152.24 22.0373 152.25 21.9413 152.25 21.856C152.25 21.7493 152.272 21.6427 152.314 21.536C152.4 21.2587 152.474 20.992 152.538 20.736C152.602 20.4587 152.688 20.192 152.794 19.936C153.178 19.0613 153.637 18.336 154.17 17.76C154.704 17.1627 155.354 16.6187 156.122 16.128C156.336 16.0213 156.56 15.9253 156.794 15.84C157.029 15.7547 157.264 15.6587 157.498 15.552C157.776 15.4453 158.064 15.3707 158.362 15.328C158.661 15.2853 158.97 15.2213 159.29 15.136C159.461 15.1147 159.621 15.104 159.77 15.104C159.92 15.104 160.069 15.0933 160.218 15.072C161.456 15.0507 162.522 15.1787 163.418 15.456C164.336 15.7333 165.146 16.1173 165.85 16.608C166.085 16.7787 166.32 16.9707 166.554 17.184C166.81 17.376 167.024 17.5893 167.194 17.824C167.365 18.0373 167.514 18.2507 167.642 18.464C167.792 18.6773 167.941 18.9013 168.09 19.136C168.24 19.3707 168.357 19.6267 168.442 19.904C168.528 20.16 168.624 20.4373 168.73 20.736C168.794 20.9067 168.848 21.088 168.89 21.28C168.933 21.472 168.976 21.664 169.018 21.856C169.04 21.9413 169.05 22.0267 169.05 22.112C169.05 22.1973 169.061 22.2827 169.082 22.368C169.125 22.4747 169.136 22.592 169.114 22.72C169.093 22.848 169.104 22.9653 169.146 23.072ZM164.666 24.224C164.688 24.1173 164.698 23.968 164.698 23.776C164.698 23.5627 164.688 23.4027 164.666 23.296V23.04C164.624 22.9333 164.602 22.816 164.602 22.688C164.602 22.56 164.592 22.4427 164.57 22.336C164.57 22.2507 164.56 22.1867 164.538 22.144C164.496 21.9733 164.453 21.8027 164.41 21.632C164.389 21.44 164.346 21.2587 164.282 21.088C164.048 20.5333 163.77 20.064 163.45 19.68C163.13 19.2747 162.704 18.9547 162.17 18.72C162.042 18.6773 161.914 18.6453 161.786 18.624C161.658 18.5813 161.52 18.5387 161.37 18.496C161.2 18.4533 161.018 18.4427 160.826 18.464C160.634 18.464 160.442 18.464 160.25 18.464C160.186 18.5067 160.112 18.528 160.026 18.528C159.941 18.5067 159.866 18.5067 159.802 18.528C159.653 18.5707 159.504 18.6133 159.354 18.656C159.226 18.6773 159.109 18.72 159.002 18.784C158.469 19.0187 158.032 19.36 157.69 19.808C157.37 20.2347 157.114 20.736 156.922 21.312C156.858 21.5253 156.805 21.7493 156.762 21.984C156.741 22.2187 156.709 22.4533 156.666 22.688C156.645 22.7947 156.634 22.9013 156.634 23.008C156.634 23.1147 156.634 23.2213 156.634 23.328C156.592 23.4773 156.57 23.7013 156.57 24C156.592 24.2987 156.624 24.5227 156.666 24.672V24.96C156.709 25.1307 156.741 25.3013 156.762 25.472C156.784 25.6213 156.816 25.7813 156.858 25.952C157.072 26.592 157.296 27.1147 157.53 27.52C157.786 27.904 158.181 28.256 158.714 28.576C158.864 28.6827 159.024 28.768 159.194 28.832C159.386 28.896 159.578 28.9493 159.77 28.992C159.856 29.0133 159.93 29.024 159.994 29.024C160.058 29.0027 160.133 29.0027 160.218 29.024C160.304 29.0453 160.389 29.0667 160.474 29.088C160.581 29.088 160.677 29.0773 160.762 29.056H161.018C161.189 29.0133 161.36 28.9813 161.53 28.96C161.701 28.9387 161.861 28.896 162.01 28.832C162.565 28.6187 163.013 28.3307 163.354 27.968C163.696 27.6053 163.984 27.1573 164.218 26.624C164.304 26.4107 164.368 26.1973 164.41 25.984C164.453 25.7707 164.506 25.5467 164.57 25.312C164.592 25.2267 164.602 25.152 164.602 25.088C164.602 25.0027 164.613 24.9173 164.634 24.832C164.634 24.7253 164.634 24.6293 164.634 24.544C164.634 24.4373 164.645 24.3307 164.666 24.224ZM180.303 9.152H183.119C183.375 9.152 183.642 9.152 183.919 9.152C184.196 9.152 184.42 9.19467 184.591 9.28C184.826 9.38667 185.018 9.58933 185.167 9.888C185.338 10.1867 185.498 10.4427 185.647 10.656C186.01 11.232 186.351 11.808 186.671 12.384C186.991 12.96 187.332 13.536 187.695 14.112C187.972 14.5387 188.228 14.976 188.463 15.424C188.698 15.8507 188.954 16.2773 189.231 16.704C189.338 16.8747 189.444 17.0667 189.551 17.28C189.658 17.472 189.828 17.5893 190.063 17.632C190.212 17.6533 190.34 17.6 190.447 17.472C190.554 17.344 190.639 17.2373 190.703 17.152C190.895 16.8533 191.066 16.5547 191.215 16.256C191.386 15.9573 191.567 15.6587 191.759 15.36C192.207 14.6347 192.644 13.9093 193.071 13.184C193.498 12.4373 193.935 11.6907 194.383 10.944C194.554 10.6667 194.735 10.3467 194.927 9.984C195.119 9.62133 195.364 9.376 195.663 9.248C195.855 9.14133 196.154 9.09867 196.559 9.12C196.986 9.14133 197.348 9.152 197.647 9.152H199.439C199.61 9.152 199.78 9.16267 199.951 9.184C200.143 9.184 200.292 9.216 200.399 9.28C200.57 9.38667 200.612 9.55733 200.527 9.792C200.442 10.0053 200.367 10.1653 200.303 10.272C200.047 10.6987 199.791 11.1253 199.535 11.552C199.3 11.9573 199.055 12.3733 198.799 12.8C198.074 13.952 197.37 15.104 196.687 16.256C196.026 17.408 195.343 18.56 194.639 19.712C194.404 20.0533 194.18 20.4053 193.967 20.768C193.775 21.1093 193.572 21.4613 193.359 21.824C193.188 22.0587 193.028 22.2933 192.879 22.528C192.751 22.7627 192.644 23.0293 192.559 23.328C192.538 23.4347 192.527 23.5413 192.527 23.648C192.548 23.7333 192.548 23.8293 192.527 23.936C192.506 24 192.495 24.0747 192.495 24.16C192.495 24.2453 192.495 24.3307 192.495 24.416V25.408V29.568C192.495 29.9733 192.495 30.4107 192.495 30.88C192.516 31.3493 192.399 31.6587 192.143 31.808C192.015 31.8933 191.844 31.936 191.631 31.936C191.439 31.936 191.247 31.936 191.055 31.936H188.815C188.58 31.936 188.367 31.9253 188.175 31.904C187.983 31.8827 187.834 31.808 187.727 31.68C187.62 31.552 187.567 31.4027 187.567 31.232C187.567 31.0613 187.556 30.8587 187.535 30.624V29.376V25.216V24C187.535 23.872 187.535 23.744 187.535 23.616C187.535 23.4667 187.514 23.3387 187.471 23.232C187.386 22.912 187.268 22.624 187.119 22.368C186.97 22.112 186.81 21.8667 186.639 21.632C186.447 21.2907 186.255 20.96 186.063 20.64C185.871 20.2987 185.668 19.9573 185.455 19.616C185.284 19.3813 185.135 19.136 185.007 18.88C184.879 18.6027 184.73 18.3467 184.559 18.112C184.004 17.2373 183.471 16.3627 182.959 15.488C182.447 14.6133 181.924 13.7387 181.391 12.864C181.135 12.4373 180.89 12.032 180.655 11.648C180.42 11.2427 180.186 10.8267 179.951 10.4C179.887 10.3147 179.791 10.176 179.663 9.984C179.556 9.77067 179.546 9.58933 179.631 9.44C179.674 9.35467 179.727 9.30133 179.791 9.28C179.876 9.23733 179.962 9.20533 180.047 9.184C180.09 9.16267 180.132 9.16267 180.175 9.184C180.218 9.184 180.26 9.17333 180.303 9.152ZM200.089 15.488H202.425C202.659 15.488 202.883 15.4987 203.097 15.52C203.31 15.52 203.491 15.5627 203.641 15.648C203.875 15.7973 204.035 16.0747 204.121 16.48C204.227 16.864 204.334 17.2053 204.441 17.504C204.675 18.208 204.899 18.9333 205.113 19.68C205.326 20.4053 205.55 21.1307 205.785 21.856C205.955 22.368 206.115 22.8907 206.265 23.424C206.414 23.9573 206.585 24.4693 206.777 24.96C206.841 25.152 206.905 25.3547 206.969 25.568C207.054 25.7813 207.214 25.888 207.449 25.888C207.491 25.8453 207.523 25.824 207.545 25.824C207.566 25.8027 207.598 25.7707 207.641 25.728C207.705 25.6213 207.758 25.5147 207.801 25.408C207.843 25.3013 207.886 25.184 207.929 25.056C208.035 24.8213 208.11 24.576 208.153 24.32C208.217 24.064 208.291 23.8187 208.377 23.584C208.675 22.688 208.953 21.792 209.209 20.896C209.486 19.9787 209.774 19.072 210.073 18.176C210.179 17.92 210.265 17.664 210.329 17.408C210.393 17.1307 210.467 16.8747 210.553 16.64C210.595 16.4693 210.649 16.2987 210.713 16.128C210.777 15.9573 210.873 15.8187 211.001 15.712C211.065 15.6693 211.203 15.6053 211.417 15.52C211.545 15.4773 211.683 15.4667 211.833 15.488C211.982 15.488 212.121 15.488 212.249 15.488H213.817C214.051 15.488 214.265 15.4987 214.457 15.52C214.67 15.52 214.83 15.5733 214.937 15.68C215.065 15.7867 215.107 15.9467 215.065 16.16C215.043 16.352 215.011 16.512 214.969 16.64C214.862 16.9387 214.755 17.2587 214.649 17.6C214.542 17.92 214.435 18.2293 214.329 18.528C214.265 18.6773 214.211 18.8267 214.169 18.976C214.147 19.104 214.115 19.232 214.073 19.36C213.966 19.5947 213.87 19.8293 213.785 20.064C213.721 20.2987 213.646 20.5333 213.561 20.768C213.539 20.832 213.518 20.9067 213.497 20.992C213.497 21.056 213.475 21.12 213.433 21.184C213.305 21.504 213.187 21.8347 213.081 22.176C212.995 22.496 212.899 22.816 212.793 23.136C212.558 23.776 212.334 24.4373 212.121 25.12C211.907 25.7813 211.673 26.432 211.417 27.072C211.31 27.3707 211.214 27.6693 211.129 27.968C211.043 28.2453 210.947 28.5333 210.841 28.832C210.798 28.9387 210.766 29.0347 210.745 29.12C210.723 29.184 210.691 29.2693 210.649 29.376C210.563 29.6107 210.478 29.856 210.393 30.112C210.329 30.3467 210.254 30.5813 210.169 30.816C210.062 31.0507 209.966 31.2747 209.881 31.488C209.795 31.68 209.635 31.8187 209.401 31.904C209.23 31.968 209.049 32 208.857 32C208.665 31.9787 208.473 31.968 208.281 31.968H206.201C205.966 31.968 205.731 31.968 205.497 31.968C205.283 31.968 205.091 31.9253 204.921 31.84C204.771 31.7333 204.665 31.6053 204.601 31.456C204.537 31.2853 204.473 31.104 204.409 30.912C204.302 30.656 204.206 30.3893 204.121 30.112C204.035 29.8347 203.939 29.568 203.833 29.312C203.79 29.2267 203.758 29.152 203.737 29.088C203.737 29.0027 203.715 28.9067 203.673 28.8C203.566 28.544 203.47 28.2773 203.385 28C203.299 27.7227 203.203 27.4453 203.097 27.168C203.054 27.0613 203.022 26.9653 203.001 26.88C202.979 26.7733 202.947 26.6667 202.905 26.56C202.819 26.368 202.745 26.176 202.681 25.984C202.617 25.7707 202.553 25.568 202.489 25.376C202.446 25.312 202.425 25.248 202.425 25.184C202.425 25.0987 202.403 25.024 202.361 24.96C202.275 24.768 202.201 24.576 202.137 24.384C202.094 24.192 202.03 23.9893 201.945 23.776C201.753 23.2853 201.571 22.784 201.401 22.272C201.23 21.7387 201.059 21.216 200.889 20.704C200.654 20.128 200.451 19.552 200.281 18.976C200.11 18.3787 199.918 17.792 199.705 17.216L199.417 16.352C199.395 16.288 199.374 16.2133 199.353 16.128C199.353 16.0213 199.374 15.9253 199.417 15.84C199.481 15.6907 199.63 15.584 199.865 15.52C199.971 15.52 200.046 15.5093 200.089 15.488ZM232.97 23.584C233.012 23.7547 233.012 23.9467 232.97 24.16C232.927 24.3733 232.852 24.512 232.746 24.576C232.639 24.6613 232.479 24.7253 232.266 24.768C232.074 24.7893 231.85 24.8107 231.594 24.832C231.359 24.832 231.114 24.832 230.858 24.832C230.623 24.8107 230.41 24.8 230.218 24.8H222.41C222.26 24.8 222.111 24.8 221.962 24.8C221.834 24.8 221.716 24.8213 221.61 24.864C221.439 24.9493 221.332 25.0347 221.29 25.12C221.247 25.1627 221.204 25.248 221.162 25.376C221.119 25.4827 221.108 25.5893 221.13 25.696C221.172 25.824 221.194 25.952 221.194 26.08C221.215 26.1867 221.247 26.304 221.29 26.432C221.46 26.944 221.663 27.3707 221.898 27.712C222.154 28.032 222.495 28.32 222.922 28.576C223.092 28.6827 223.263 28.7573 223.434 28.8C223.626 28.8213 223.818 28.864 224.01 28.928C224.18 28.9707 224.415 29.0027 224.714 29.024C225.012 29.0453 225.268 29.0347 225.482 28.992H225.77C225.983 28.9493 226.175 28.9067 226.346 28.864C226.538 28.8 226.719 28.736 226.89 28.672C227.103 28.5653 227.338 28.4267 227.594 28.256C227.871 28.0853 228.074 27.9147 228.202 27.744C228.308 27.5947 228.415 27.456 228.522 27.328C228.65 27.1787 228.799 27.072 228.97 27.008C229.183 26.9013 229.45 26.8587 229.77 26.88C230.111 26.88 230.42 26.88 230.698 26.88C230.826 26.88 230.954 26.88 231.082 26.88C231.231 26.8587 231.359 26.8693 231.466 26.912H231.786C231.999 26.9547 232.148 27.008 232.234 27.072C232.319 27.1147 232.362 27.2107 232.362 27.36C232.383 27.5093 232.372 27.6373 232.33 27.744C232.223 28.0427 232.106 28.3093 231.978 28.544C231.85 28.7787 231.7 29.0133 231.53 29.248C231.06 29.952 230.527 30.5173 229.93 30.944C229.332 31.3707 228.586 31.7333 227.69 32.032C227.455 32.1173 227.22 32.1707 226.986 32.192C226.751 32.2133 226.506 32.256 226.25 32.32C226.164 32.3413 226.068 32.3413 225.962 32.32C225.876 32.32 225.791 32.3307 225.706 32.352H225.354C225.247 32.3947 225.119 32.4053 224.97 32.384C224.842 32.384 224.724 32.3733 224.618 32.352C224.447 32.3307 224.298 32.3307 224.17 32.352C224.042 32.3733 223.903 32.3627 223.754 32.32C223.647 32.2773 223.53 32.256 223.402 32.256C223.274 32.256 223.156 32.2347 223.05 32.192C222.815 32.1493 222.58 32.096 222.346 32.032C222.111 31.9893 221.898 31.9147 221.706 31.808C221.471 31.7227 221.247 31.648 221.034 31.584C220.842 31.4987 220.66 31.4027 220.49 31.296C219.807 30.8693 219.199 30.3787 218.666 29.824C218.132 29.248 217.695 28.5867 217.354 27.84C217.247 27.6053 217.162 27.3707 217.098 27.136C217.034 26.88 216.948 26.624 216.842 26.368C216.82 26.2827 216.81 26.208 216.81 26.144C216.81 26.0587 216.799 25.9733 216.778 25.888C216.692 25.632 216.639 25.3547 216.618 25.056C216.596 24.7573 216.575 24.4587 216.554 24.16C216.554 24.0533 216.543 23.936 216.522 23.808C216.522 23.68 216.532 23.5627 216.554 23.456V23.072L216.65 22.304C216.735 21.9413 216.81 21.5893 216.874 21.248C216.938 20.9067 217.034 20.5867 217.162 20.288C218.079 18.0693 219.636 16.5013 221.834 15.584C222.132 15.456 222.431 15.3707 222.73 15.328C223.05 15.264 223.38 15.1893 223.722 15.104C223.892 15.0827 224.052 15.072 224.202 15.072C224.351 15.072 224.511 15.0613 224.682 15.04C225.77 15.0187 226.698 15.1467 227.466 15.424C228.255 15.68 228.959 16.0213 229.578 16.448C229.77 16.576 229.962 16.7253 230.154 16.896C230.346 17.0453 230.516 17.2053 230.666 17.376C230.73 17.4827 230.815 17.568 230.922 17.632C231.092 17.8667 231.252 18.112 231.402 18.368C231.551 18.6027 231.711 18.848 231.882 19.104C231.988 19.296 232.074 19.4987 232.138 19.712C232.223 19.904 232.308 20.1173 232.394 20.352C232.5 20.6293 232.586 20.9173 232.65 21.216C232.714 21.5147 232.788 21.8133 232.874 22.112C232.916 22.2827 232.927 22.4747 232.906 22.688C232.906 22.88 232.927 23.0613 232.97 23.232V23.584ZM228.17 21.696C228.319 21.4827 228.33 21.2267 228.202 20.928C228.095 20.608 228.01 20.3733 227.946 20.224C227.647 19.648 227.252 19.2107 226.762 18.912C226.271 18.592 225.588 18.4213 224.714 18.4C224.65 18.4427 224.575 18.4533 224.49 18.432C224.404 18.4107 224.33 18.4107 224.266 18.432C224.159 18.4747 224.042 18.5067 223.914 18.528C223.786 18.528 223.668 18.5493 223.562 18.592C222.623 18.8907 221.93 19.4773 221.482 20.352C221.439 20.4373 221.386 20.5547 221.322 20.704C221.279 20.832 221.247 20.9707 221.226 21.12C221.204 21.248 221.204 21.376 221.226 21.504C221.268 21.632 221.343 21.7387 221.45 21.824C221.62 21.9307 221.855 21.984 222.154 21.984C222.452 21.984 222.74 21.984 223.018 21.984H226.57C226.868 21.984 227.178 21.984 227.498 21.984C227.839 21.9627 228.063 21.8667 228.17 21.696ZM241.969 15.04C243.569 14.9973 244.955 15.1787 246.129 15.584C247.323 15.968 248.23 16.64 248.849 17.6C248.998 17.8347 249.126 18.08 249.233 18.336C249.361 18.5707 249.467 18.8373 249.553 19.136C249.595 19.264 249.617 19.4027 249.617 19.552C249.617 19.7013 249.595 19.8293 249.553 19.936C249.467 20.064 249.35 20.1493 249.201 20.192C249.094 20.2347 248.966 20.256 248.817 20.256C248.667 20.256 248.518 20.256 248.369 20.256H246.961C246.811 20.256 246.662 20.2667 246.513 20.288C246.363 20.288 246.225 20.2667 246.097 20.224C245.883 20.1813 245.723 20.096 245.617 19.968C245.51 19.84 245.414 19.712 245.329 19.584C245.243 19.4347 245.158 19.2853 245.073 19.136C245.009 18.9653 244.902 18.8267 244.753 18.72C244.539 18.5493 244.326 18.4213 244.113 18.336C243.921 18.2507 243.675 18.176 243.377 18.112C243.227 18.0693 243.003 18.0373 242.705 18.016C242.427 17.9947 242.214 18.0053 242.065 18.048H241.841C241.734 18.0693 241.627 18.0907 241.521 18.112C241.435 18.112 241.339 18.1227 241.233 18.144C240.87 18.2507 240.571 18.4 240.337 18.592C240.123 18.7627 239.974 19.0293 239.889 19.392C239.846 19.5413 239.846 19.68 239.889 19.808C239.931 19.936 239.974 20.0427 240.017 20.128C240.166 20.384 240.337 20.5867 240.529 20.736C240.742 20.8853 240.987 21.0133 241.265 21.12C241.67 21.2907 242.107 21.44 242.577 21.568C243.067 21.6747 243.558 21.7813 244.049 21.888C244.561 21.9733 245.051 22.08 245.521 22.208C246.011 22.3147 246.47 22.4533 246.897 22.624C247.089 22.7093 247.27 22.784 247.441 22.848C247.633 22.8907 247.814 22.9653 247.985 23.072C248.39 23.328 248.753 23.6053 249.073 23.904C249.414 24.2027 249.681 24.576 249.873 25.024C249.937 25.1733 249.99 25.3227 250.033 25.472C250.075 25.6213 250.118 25.7813 250.161 25.952C250.182 26.08 250.193 26.2827 250.193 26.56C250.214 26.816 250.214 27.0187 250.193 27.168V27.328C250.15 27.456 250.118 27.584 250.097 27.712C250.097 27.8187 250.086 27.9253 250.065 28.032C249.915 28.672 249.681 29.2373 249.361 29.728C249.019 30.24 248.603 30.656 248.113 30.976C247.622 31.296 247.067 31.5733 246.449 31.808C246.214 31.9147 245.958 31.9893 245.681 32.032C245.425 32.0747 245.169 32.128 244.913 32.192C244.721 32.2347 244.518 32.256 244.305 32.256C244.113 32.2773 243.921 32.3093 243.729 32.352H243.153C243.025 32.3947 242.801 32.416 242.481 32.416C242.182 32.416 241.969 32.3947 241.841 32.352C241.777 32.352 241.702 32.3413 241.617 32.32C241.553 32.32 241.478 32.32 241.393 32.32C241.137 32.2773 240.881 32.2453 240.625 32.224C240.369 32.2027 240.123 32.16 239.889 32.096C239.057 31.8613 238.321 31.5947 237.681 31.296C237.041 30.976 236.497 30.5067 236.049 29.888C235.75 29.4827 235.494 29.0133 235.281 28.48C235.238 28.352 235.195 28.1813 235.153 27.968C235.11 27.8613 235.078 27.712 235.057 27.52C235.035 27.328 235.046 27.168 235.089 27.04C235.153 26.8907 235.259 26.784 235.409 26.72C235.515 26.6773 235.643 26.656 235.793 26.656C235.942 26.656 236.102 26.656 236.273 26.656H237.777C237.947 26.656 238.118 26.656 238.289 26.656C238.459 26.656 238.609 26.6773 238.737 26.72C238.971 26.8053 239.121 26.944 239.185 27.136C239.27 27.328 239.366 27.5307 239.473 27.744C239.515 27.8507 239.59 27.9893 239.697 28.16C239.825 28.3307 239.931 28.4373 240.017 28.48C240.273 28.6933 240.518 28.864 240.753 28.992C240.987 29.0987 241.286 29.2053 241.649 29.312C241.755 29.3547 241.862 29.376 241.969 29.376C242.075 29.3547 242.182 29.3547 242.289 29.376C242.459 29.4187 242.641 29.44 242.833 29.44C243.046 29.4187 243.227 29.3867 243.377 29.344C243.483 29.3227 243.579 29.312 243.665 29.312C243.771 29.312 243.878 29.2907 243.985 29.248C244.283 29.1413 244.55 29.0133 244.785 28.864C245.041 28.7147 245.243 28.5227 245.393 28.288C245.499 28.1173 245.585 27.8507 245.649 27.488C245.691 27.3387 245.691 27.2 245.649 27.072C245.606 26.944 245.563 26.8373 245.521 26.752C245.371 26.4533 245.179 26.2293 244.945 26.08C244.731 25.9307 244.475 25.792 244.177 25.664C243.771 25.4933 243.345 25.3547 242.897 25.248C242.449 25.1413 242.001 25.024 241.553 24.896C241.382 24.8533 241.201 24.8213 241.009 24.8C240.838 24.7787 240.667 24.7467 240.497 24.704C239.814 24.512 239.163 24.3307 238.545 24.16C237.926 23.968 237.361 23.6907 236.849 23.328C236.251 22.9013 235.814 22.3253 235.537 21.6C235.494 21.4507 235.451 21.248 235.409 20.992C235.366 20.8427 235.334 20.6613 235.313 20.448C235.291 20.2347 235.302 20.0427 235.345 19.872C235.387 19.7653 235.398 19.68 235.377 19.616C235.355 19.5307 235.366 19.4347 235.409 19.328C235.451 19.0933 235.494 18.88 235.537 18.688C235.601 18.4747 235.675 18.272 235.761 18.08C236.038 17.4613 236.422 16.96 236.913 16.576C237.403 16.192 237.958 15.8827 238.577 15.648C238.811 15.5413 239.057 15.4667 239.313 15.424C239.569 15.36 239.835 15.296 240.113 15.232C240.241 15.1893 240.369 15.168 240.497 15.168C240.625 15.1467 240.753 15.1253 240.881 15.104C241.051 15.0827 241.233 15.072 241.425 15.072C241.617 15.072 241.798 15.0613 241.969 15.04Z" fill="white"/>
</svg>
